<svg xmlns="http://www.w3.org/2000/svg" xmlns:xlink="http://www.w3.org/1999/xlink" width="500" zoomAndPan="magnify" viewBox="0 0 375 74.999997" height="100" preserveAspectRatio="xMidYMid meet" version="1.0"><defs><g/><clipPath id="cc3bc94e89"><path d="M 28.007812 6.480469 L 102.226562 6.480469 L 102.226562 70.671875 L 28.007812 70.671875 Z M 28.007812 6.480469 " clip-rule="nonzero"/></clipPath><clipPath id="53690ac0a2"><path d="M 65.019531 6.480469 L 102.03125 70.554688 L 28.007812 70.554688 Z M 65.019531 6.480469 " clip-rule="nonzero"/></clipPath><clipPath id="ce9fe585f0"><path d="M 0.0078125 0.480469 L 74 0.480469 L 74 64.558594 L 0.0078125 64.558594 Z M 0.0078125 0.480469 " clip-rule="nonzero"/></clipPath><clipPath id="8d8e7a158b"><path d="M 37.019531 0.480469 L 74.03125 64.554688 L 0.0078125 64.554688 Z M 37.019531 0.480469 " clip-rule="nonzero"/></clipPath><clipPath id="f005724c2d"><rect x="0" width="75" y="0" height="65"/></clipPath><clipPath id="5cba5ee525"><path d="M 28.007812 6.480469 L 102.023438 6.480469 L 102.023438 70.980469 L 28.007812 70.980469 Z M 28.007812 6.480469 " clip-rule="nonzero"/></clipPath><clipPath id="93c513e654"><path d="M 65.015625 6.480469 L 102.023438 70.546875 L 28.007812 70.546875 Z M 65.015625 6.480469 " clip-rule="nonzero"/></clipPath><clipPath id="04ccbd7348"><path d="M 78.121094 5.902344 L 152.253906 5.902344 L 152.253906 70.671875 L 78.121094 70.671875 Z M 78.121094 5.902344 " clip-rule="nonzero"/></clipPath><clipPath id="4062afd8c8"><path d="M 115.132812 5.902344 L 152.144531 70.671875 L 78.121094 70.671875 Z M 115.132812 5.902344 " clip-rule="nonzero"/></clipPath><clipPath id="df9400c9a6"><path d="M 0.121094 0.902344 L 74.160156 0.902344 L 74.160156 65.671875 L 0.121094 65.671875 Z M 0.121094 0.902344 " clip-rule="nonzero"/></clipPath><clipPath id="52f246ede3"><path d="M 37.132812 0.902344 L 74.144531 65.671875 L 0.121094 65.671875 Z M 37.132812 0.902344 " clip-rule="nonzero"/></clipPath><clipPath id="4337f1f1e2"><rect x="0" width="75" y="0" height="66"/></clipPath><clipPath id="8c761cc4ce"><path d="M 78.125 5.902344 L 152.132812 5.902344 L 152.132812 70.402344 L 78.125 70.402344 Z M 78.125 5.902344 " clip-rule="nonzero"/></clipPath><clipPath id="727a7d138d"><path d="M 115.128906 5.902344 L 152.132812 70.660156 L 78.125 70.660156 Z M 115.128906 5.902344 " clip-rule="nonzero"/></clipPath><clipPath id="44e04893b5"><path d="M 78.121094 49.753906 L 102.066406 49.753906 L 102.066406 70.671875 L 78.121094 70.671875 Z M 78.121094 49.753906 " clip-rule="nonzero"/></clipPath><clipPath id="911c5aaf77"><path d="M 90.074219 49.753906 L 102.03125 70.671875 L 78.121094 70.671875 Z M 90.074219 49.753906 " clip-rule="nonzero"/></clipPath><clipPath id="fff705f809"><path d="M 0.121094 0.753906 L 24.066406 0.753906 L 24.066406 21.671875 L 0.121094 21.671875 Z M 0.121094 0.753906 " clip-rule="nonzero"/></clipPath><clipPath id="1dc196b5fa"><path d="M 12.074219 0.753906 L 24.03125 21.671875 L 0.121094 21.671875 Z M 12.074219 0.753906 " clip-rule="nonzero"/></clipPath><clipPath id="8900e08e58"><rect x="0" width="25" y="0" height="22"/></clipPath><clipPath id="6b9a4d2af4"><path d="M 78.121094 49.753906 L 102.027344 49.753906 L 102.027344 70.671875 L 78.121094 70.671875 Z M 78.121094 49.753906 " clip-rule="nonzero"/></clipPath><clipPath id="ac43ec602c"><path d="M 90.074219 49.753906 L 102.027344 70.671875 L 78.121094 70.671875 Z M 90.074219 49.753906 " clip-rule="nonzero"/></clipPath><clipPath id="d113e4ca75"><rect x="0" width="211" y="0" height="46"/></clipPath></defs><g clip-path="url(#cc3bc94e89)"><g clip-path="url(#53690ac0a2)"><g transform="matrix(1, 0, 0, 1, 28, 6)"><g clip-path="url(#f005724c2d)"><g clip-path="url(#ce9fe585f0)"><g clip-path="url(#8d8e7a158b)"><path fill="#1c04b2" d="M 0.0078125 0.480469 L 73.976562 0.480469 L 73.976562 64.671875 L 0.0078125 64.671875 Z M 0.0078125 0.480469 " fill-opacity="1" fill-rule="nonzero"/></g></g></g></g></g></g><g clip-path="url(#5cba5ee525)"><g clip-path="url(#93c513e654)"><path stroke-linecap="butt" transform="matrix(0.75, 0, 0, 0.75, 28.008459, 6.479359)" fill="none" stroke-linejoin="miter" d="M 49.342889 0.0014792 L 98.68664 85.423356 L -0.00086143 85.423356 Z M 49.342889 0.0014792 " stroke="#1c04b2" stroke-width="2" stroke-opacity="1" stroke-miterlimit="4"/></g></g><g clip-path="url(#04ccbd7348)"><g clip-path="url(#4062afd8c8)"><g transform="matrix(1, 0, 0, 1, 78, 5)"><g clip-path="url(#4337f1f1e2)"><g clip-path="url(#df9400c9a6)"><g clip-path="url(#52f246ede3)"><path fill="#6c2fe4" d="M 0.121094 0.902344 L 74.253906 0.902344 L 74.253906 65.671875 L 0.121094 65.671875 Z M 0.121094 0.902344 " fill-opacity="1" fill-rule="nonzero"/></g></g></g></g></g></g><g clip-path="url(#8c761cc4ce)"><g clip-path="url(#727a7d138d)"><path stroke-linecap="butt" transform="matrix(0.75, 0, 0, 0.75, 78.125641, 5.901987)" fill="none" stroke-linejoin="miter" d="M 49.337688 0.000475563 L 98.67623 86.344227 L -0.000854826 86.344227 Z M 49.337688 0.000475563 " stroke="#6c2fe4" stroke-width="2" stroke-opacity="1" stroke-miterlimit="4"/></g></g><g clip-path="url(#44e04893b5)"><g clip-path="url(#911c5aaf77)"><g transform="matrix(1, 0, 0, 1, 78, 49)"><g clip-path="url(#8900e08e58)"><g clip-path="url(#fff705f809)"><g clip-path="url(#1dc196b5fa)"><path fill="#ab20d1" d="M 0.121094 0.753906 L 24.066406 0.753906 L 24.066406 21.671875 L 0.121094 21.671875 Z M 0.121094 0.753906 " fill-opacity="1" fill-rule="nonzero"/></g></g></g></g></g></g><g clip-path="url(#6b9a4d2af4)"><g clip-path="url(#ac43ec602c)"><path stroke-linecap="butt" transform="matrix(0.75, 0, 0, 0.75, 78.122293, 49.752516)" fill="none" stroke-linejoin="miter" d="M 15.935901 0.00185402 L 31.873401 27.89248 L -0.00159916 27.89248 Z M 15.935901 0.00185402 " stroke="#ab20d1" stroke-width="2" stroke-opacity="1" stroke-miterlimit="4"/></g></g><g transform="matrix(1, 0, 0, 1, 156, 15)"><g clip-path="url(#d113e4ca75)"><g fill="#6c2fe4" fill-opacity="1"><g transform="translate(1.087954, 32.700775)"><g><path d="M 0.28125 -23.4375 L 0.28125 -29.28125 L 20.875 -29.28125 L 20.875 -23.4375 L 13.921875 -23.4375 L 13.921875 0 L 7.234375 0 L 7.234375 -23.4375 Z M 0.28125 -23.4375 "/></g></g></g><g fill="#6c2fe4" fill-opacity="1"><g transform="translate(19.47602, 32.700775)"><g><path d="M 3.359375 -2.25 C 1.660156 -4.113281 0.8125 -6.394531 0.8125 -9.09375 C 0.8125 -11.789062 1.660156 -14.070312 3.359375 -15.9375 C 5.066406 -17.8125 7.238281 -18.75 9.875 -18.75 C 12.28125 -18.75 14.265625 -17.988281 15.828125 -16.46875 L 15.828125 -18.21875 L 22.109375 -18.21875 L 22.109375 0 L 15.90625 0 L 15.90625 -2.0625 L 15.828125 -2.0625 C 14.265625 -0.332031 12.28125 0.53125 9.875 0.53125 C 7.238281 0.53125 5.066406 -0.394531 3.359375 -2.25 Z M 8.703125 -12.171875 C 7.890625 -11.367188 7.484375 -10.335938 7.484375 -9.078125 C 7.484375 -7.828125 7.875 -6.804688 8.65625 -6.015625 C 9.4375 -5.222656 10.46875 -4.828125 11.75 -4.828125 C 12.976562 -4.828125 13.988281 -5.226562 14.78125 -6.03125 C 15.570312 -6.832031 15.96875 -7.851562 15.96875 -9.09375 C 15.96875 -10.34375 15.5625 -11.367188 14.75 -12.171875 C 13.9375 -12.984375 12.9375 -13.390625 11.75 -13.390625 C 10.539062 -13.390625 9.523438 -12.984375 8.703125 -12.171875 Z M 8.703125 -12.171875 "/></g></g></g><g fill="#6c2fe4" fill-opacity="1"><g transform="translate(43.579861, 32.700775)"><g><path d="M 10.046875 -18.75 C 11.085938 -18.75 12.113281 -18.628906 13.125 -18.390625 C 14.144531 -18.148438 14.90625 -17.910156 15.40625 -17.671875 L 16.15625 -17.328125 L 14.09375 -13.203125 C 12.675781 -13.960938 11.328125 -14.34375 10.046875 -14.34375 C 9.335938 -14.34375 8.832031 -14.265625 8.53125 -14.109375 C 8.238281 -13.953125 8.09375 -13.660156 8.09375 -13.234375 C 8.09375 -13.140625 8.101562 -13.046875 8.125 -12.953125 C 8.15625 -12.859375 8.203125 -12.769531 8.265625 -12.6875 C 8.335938 -12.601562 8.40625 -12.53125 8.46875 -12.46875 C 8.53125 -12.414062 8.628906 -12.351562 8.765625 -12.28125 C 8.910156 -12.207031 9.023438 -12.148438 9.109375 -12.109375 C 9.191406 -12.078125 9.328125 -12.023438 9.515625 -11.953125 C 9.703125 -11.890625 9.84375 -11.835938 9.9375 -11.796875 C 10.03125 -11.765625 10.1875 -11.710938 10.40625 -11.640625 C 10.632812 -11.566406 10.8125 -11.519531 10.9375 -11.5 C 11.664062 -11.289062 12.300781 -11.054688 12.84375 -10.796875 C 13.394531 -10.535156 13.972656 -10.175781 14.578125 -9.71875 C 15.179688 -9.269531 15.644531 -8.703125 15.96875 -8.015625 C 16.300781 -7.335938 16.46875 -6.5625 16.46875 -5.6875 C 16.46875 -1.539062 13.59375 0.53125 7.84375 0.53125 C 6.539062 0.53125 5.300781 0.332031 4.125 -0.0625 C 2.957031 -0.46875 2.113281 -0.875 1.59375 -1.28125 L 0.8125 -1.921875 L 3.375 -6.21875 C 3.5625 -6.050781 3.804688 -5.851562 4.109375 -5.625 C 4.421875 -5.40625 4.976562 -5.097656 5.78125 -4.703125 C 6.59375 -4.316406 7.289062 -4.125 7.875 -4.125 C 9.175781 -4.125 9.828125 -4.5625 9.828125 -5.4375 C 9.828125 -5.832031 9.660156 -6.140625 9.328125 -6.359375 C 9.003906 -6.585938 8.445312 -6.84375 7.65625 -7.125 C 6.863281 -7.414062 6.238281 -7.679688 5.78125 -7.921875 C 4.644531 -8.503906 3.742188 -9.171875 3.078125 -9.921875 C 2.421875 -10.671875 2.09375 -11.660156 2.09375 -12.890625 C 2.09375 -14.734375 2.804688 -16.171875 4.234375 -17.203125 C 5.671875 -18.234375 7.609375 -18.75 10.046875 -18.75 Z M 10.046875 -18.75 "/></g></g></g><g fill="#6c2fe4" fill-opacity="1"><g transform="translate(61.045405, 32.700775)"><g><path d="M 22.9375 -18.21875 L 14.265625 -9.515625 L 23.78125 0 L 15.6875 0 L 8.40625 -7.28125 L 8.40625 0 L 2.125 0 L 2.125 -30.53125 L 8.40625 -30.53125 L 8.40625 -11.859375 L 14.765625 -18.21875 Z M 22.9375 -18.21875 "/></g></g></g><g fill="#6c2fe4" fill-opacity="1"><g transform="translate(83.977802, 32.700775)"><g/></g></g><g fill="#6c2fe4" fill-opacity="1"><g transform="translate(91.964821, 32.700775)"><g><path d="M 0.28125 -23.4375 L 0.28125 -29.28125 L 20.875 -29.28125 L 20.875 -23.4375 L 13.921875 -23.4375 L 13.921875 0 L 7.234375 0 L 7.234375 -23.4375 Z M 0.28125 -23.4375 "/></g></g></g><g fill="#6c2fe4" fill-opacity="1"><g transform="translate(110.352886, 32.700775)"><g><path d="M 3.359375 -2.25 C 1.660156 -4.113281 0.8125 -6.394531 0.8125 -9.09375 C 0.8125 -11.789062 1.660156 -14.070312 3.359375 -15.9375 C 5.066406 -17.8125 7.238281 -18.75 9.875 -18.75 C 12.28125 -18.75 14.265625 -17.988281 15.828125 -16.46875 L 15.828125 -18.21875 L 22.109375 -18.21875 L 22.109375 0 L 15.90625 0 L 15.90625 -2.0625 L 15.828125 -2.0625 C 14.265625 -0.332031 12.28125 0.53125 9.875 0.53125 C 7.238281 0.53125 5.066406 -0.394531 3.359375 -2.25 Z M 8.703125 -12.171875 C 7.890625 -11.367188 7.484375 -10.335938 7.484375 -9.078125 C 7.484375 -7.828125 7.875 -6.804688 8.65625 -6.015625 C 9.4375 -5.222656 10.46875 -4.828125 11.75 -4.828125 C 12.976562 -4.828125 13.988281 -5.226562 14.78125 -6.03125 C 15.570312 -6.832031 15.96875 -7.851562 15.96875 -9.09375 C 15.96875 -10.34375 15.5625 -11.367188 14.75 -12.171875 C 13.9375 -12.984375 12.9375 -13.390625 11.75 -13.390625 C 10.539062 -13.390625 9.523438 -12.984375 8.703125 -12.171875 Z M 8.703125 -12.171875 "/></g></g></g><g fill="#6c2fe4" fill-opacity="1"><g transform="translate(134.598749, 32.700775)"><g><path d="M 2.125 0 L 2.125 -18.21875 L 8.40625 -18.21875 L 8.40625 -16.296875 L 8.484375 -16.296875 C 10.117188 -17.929688 11.859375 -18.75 13.703125 -18.75 C 15.023438 -18.75 16.265625 -18.472656 17.421875 -17.921875 C 18.585938 -17.378906 19.46875 -16.539062 20.0625 -15.40625 C 21.90625 -17.632812 23.914062 -18.75 26.09375 -18.75 C 28.03125 -18.75 29.695312 -18.203125 31.09375 -17.109375 C 32.488281 -16.023438 33.1875 -14.320312 33.1875 -12 L 33.1875 0 L 26.90625 0 L 26.90625 -10.296875 C 26.90625 -11.265625 26.640625 -12.070312 26.109375 -12.71875 C 25.578125 -13.375 24.78125 -13.703125 23.71875 -13.703125 C 22.789062 -13.703125 22.082031 -13.421875 21.59375 -12.859375 C 21.113281 -12.304688 20.847656 -11.640625 20.796875 -10.859375 L 20.796875 0 L 14.515625 0 L 14.515625 -10.296875 C 14.515625 -11.265625 14.25 -12.070312 13.71875 -12.71875 C 13.1875 -13.375 12.390625 -13.703125 11.328125 -13.703125 C 10.359375 -13.703125 9.628906 -13.398438 9.140625 -12.796875 C 8.648438 -12.191406 8.40625 -11.476562 8.40625 -10.65625 L 8.40625 0 Z M 2.125 0 "/></g></g></g><g fill="#6c2fe4" fill-opacity="1"><g transform="translate(169.565323, 32.700775)"><g><path d="M 20.546875 -8.234375 L 7.34375 -8.234375 C 7.34375 -6.953125 7.753906 -6.003906 8.578125 -5.390625 C 9.410156 -4.773438 10.3125 -4.46875 11.28125 -4.46875 C 12.300781 -4.46875 13.109375 -4.601562 13.703125 -4.875 C 14.296875 -5.15625 14.96875 -5.695312 15.71875 -6.5 L 20.265625 -4.21875 C 18.378906 -1.050781 15.234375 0.53125 10.828125 0.53125 C 8.078125 0.53125 5.71875 -0.40625 3.75 -2.28125 C 1.789062 -4.164062 0.8125 -6.429688 0.8125 -9.078125 C 0.8125 -11.734375 1.789062 -14.007812 3.75 -15.90625 C 5.71875 -17.800781 8.078125 -18.75 10.828125 -18.75 C 13.710938 -18.75 16.0625 -17.910156 17.875 -16.234375 C 19.6875 -14.566406 20.59375 -12.1875 20.59375 -9.09375 C 20.59375 -8.664062 20.578125 -8.378906 20.546875 -8.234375 Z M 7.53125 -11.71875 L 14.453125 -11.71875 C 14.304688 -12.664062 13.929688 -13.390625 13.328125 -13.890625 C 12.722656 -14.398438 11.945312 -14.65625 11 -14.65625 C 9.957031 -14.65625 9.128906 -14.382812 8.515625 -13.84375 C 7.898438 -13.300781 7.570312 -12.59375 7.53125 -11.71875 Z M 7.53125 -11.71875 "/></g></g></g><g fill="#6c2fe4" fill-opacity="1"><g transform="translate(190.900257, 32.700775)"><g><path d="M 2.125 0 L 2.125 -18.21875 L 8.40625 -18.21875 L 8.40625 -15.578125 L 8.484375 -15.578125 C 8.535156 -15.671875 8.613281 -15.789062 8.71875 -15.9375 C 8.820312 -16.082031 9.050781 -16.332031 9.40625 -16.6875 C 9.757812 -17.039062 10.132812 -17.359375 10.53125 -17.640625 C 10.9375 -17.921875 11.457031 -18.175781 12.09375 -18.40625 C 12.738281 -18.632812 13.394531 -18.75 14.0625 -18.75 C 14.75 -18.75 15.421875 -18.648438 16.078125 -18.453125 C 16.742188 -18.265625 17.226562 -18.078125 17.53125 -17.890625 L 18.03125 -17.609375 L 15.40625 -12.28125 C 14.625 -12.945312 13.535156 -13.28125 12.140625 -13.28125 C 11.378906 -13.28125 10.726562 -13.113281 10.1875 -12.78125 C 9.644531 -12.445312 9.257812 -12.039062 9.03125 -11.5625 C 8.8125 -11.09375 8.648438 -10.691406 8.546875 -10.359375 C 8.453125 -10.035156 8.40625 -9.773438 8.40625 -9.578125 L 8.40625 0 Z M 2.125 0 "/></g></g></g></g></g></svg>